<?xml version="1.0" standalone="no"?><!DOCTYPE svg PUBLIC "-//W3C//DTD SVG 1.1//EN" "http://www.w3.org/Graphics/SVG/1.1/DTD/svg11.dtd"><svg t="1639707560551" class="icon" viewBox="0 0 1025 1024" version="1.1" xmlns="http://www.w3.org/2000/svg" p-id="3481" xmlns:xlink="http://www.w3.org/1999/xlink" width="200.1953125" height="200"><defs><style type="text/css"></style></defs><path d="M945.4 153v554h-864V153h864m20-80h-904c-33.1 0-60 26.9-60 60v594c0 33.1 26.9 60 60 60h904c33.1 0 60-26.9 60-60V133c0-33.1-26.9-60-60-60z" fill="" p-id="3482"></path><path d="M521 787v71h-15.3v-71H521m20-80h-55.3c-33.1 0-60 26.9-60 60v111c0 33.1 26.9 60 60 60H541c33.1 0 60-26.9 60-60V767c0-33.1-26.9-60-60-60z" fill="" p-id="3483"></path><path d="M724.4 858h-422c-22.1 0-40 17.9-40 40s17.9 40 40 40h422c22.1 0 40-17.9 40-40s-17.9-40-40-40zM513.4 616.5c-22.1 0-40 17.9-40 40s17.9 40 40 40 40-17.9 40-40-17.9-40-40-40z" fill="" p-id="3484"></path></svg>